# Wavefront OBJ file automatically generated by Tiled2Unity

# Vertices (Count = 116)
v -770 -420 0
v -840 -420 0
v -840 -350 0
v -770 -350 0
v -700 -490 0
v -770 -490 0
v -700 -420 0
v -630 -560 0
v -700 -560 0
v -630 -490 0
v 0 -630 0
v -70 -630 0
v -70 -560 0
v 0 -560 0
v -910 -420 0
v -910 -350 0
v -980 -420 0
v -980 -350 0
v -1050 -420 0
v -1050 -350 0
v -1120 -420 0
v -1120 -350 0
v -1190 -420 0
v -1190 -350 0
v -1260 -420 0
v -1260 -350 0
v -1330 -420 0
v -1330 -350 0
v -1400 -420 0
v -1400 -350 0
v -840 -490 0
v -770 -560 0
v -1540 -560 0
v -1610 -560 0
v -1610 -490 0
v -1540 -490 0
v -1680 -560 0
v -1680 -490 0
v -140 -630 0
v -140 -560 0
v -210 -630 0
v -210 -560 0
v -280 -630 0
v -280 -560 0
v -350 -630 0
v -350 -560 0
v -420 -630 0
v -420 -560 0
v -490 -630 0
v -490 -560 0
v -560 -630 0
v -560 -560 0
v -630 -630 0
v -700 -630 0
v -1470 -420 0
v -1470 -350 0
v -1470 -490 0
v -1540 -420 0
v -910 -490 0
v -980 -490 0
v -1050 -490 0
v -1120 -490 0
v -1190 -490 0
v -1260 -490 0
v -1330 -490 0
v -1400 -490 0
v -840 -560 0
v -910 -560 0
v -980 -560 0
v -1050 -560 0
v -1120 -560 0
v -1190 -560 0
v -1260 -560 0
v -1330 -560 0
v -1400 -560 0
v -1470 -560 0
v -770 -630 0
v -840 -630 0
v -910 -630 0
v -980 -630 0
v -1050 -630 0
v -1120 -630 0
v -1190 -630 0
v -1260 -630 0
v -1330 -630 0
v -1400 -630 0
v -1470 -630 0
v -1540 -630 0
v -1610 -630 0
v -1680 -630 0
v -70 -700 0
v -140 -700 0
v -210 -700 0
v -280 -700 0
v -350 -700 0
v -420 -700 0
v -490 -700 0
v -560 -700 0
v -630 -700 0
v -700 -700 0
v -770 -700 0
v -840 -700 0
v -910 -700 0
v -980 -700 0
v -1050 -700 0
v -1120 -700 0
v -1190 -700 0
v -1260 -700 0
v -1330 -700 0
v -1400 -700 0
v -1470 -700 0
v -1540 -700 0
v -1610 -700 0
v -1680 -700 0
v -1750 -560 0
v -1750 -490 0

# Texture cooridinates (Count = 4)
vt 0.0001220703 0.0001220703
vt 0.9998779 0.0001220703
vt 0.9998779 0.9998779
vt 0.0001220703 0.9998779

# Normal
vn 0 0 -1

# Groups (Count = 1)

g mesh_0001
f 1/1/1 2/2/1 3/3/1 4/4/1
f 5/1/1 6/2/1 1/3/1 7/4/1
f 8/1/1 9/2/1 5/3/1 10/4/1
f 11/1/1 12/2/1 13/3/1 14/4/1

g mesh_0002
f 2/1/1 15/2/1 16/3/1 3/4/1
f 15/1/1 17/2/1 18/3/1 16/4/1
f 17/1/1 19/2/1 20/3/1 18/4/1
f 19/1/1 21/2/1 22/3/1 20/4/1
f 21/1/1 23/2/1 24/3/1 22/4/1
f 23/1/1 25/2/1 26/3/1 24/4/1
f 25/1/1 27/2/1 28/3/1 26/4/1
f 27/1/1 29/2/1 30/3/1 28/4/1
f 6/1/1 31/2/1 2/3/1 1/4/1
f 9/1/1 32/2/1 6/3/1 5/4/1
f 33/1/1 34/2/1 35/3/1 36/4/1
f 34/1/1 37/2/1 38/3/1 35/4/1
f 12/1/1 39/2/1 40/3/1 13/4/1
f 39/1/1 41/2/1 42/3/1 40/4/1
f 41/1/1 43/2/1 44/3/1 42/4/1
f 43/1/1 45/2/1 46/3/1 44/4/1
f 45/1/1 47/2/1 48/3/1 46/4/1
f 47/1/1 49/2/1 50/3/1 48/4/1
f 49/1/1 51/2/1 52/3/1 50/4/1
f 51/1/1 53/2/1 8/3/1 52/4/1
f 53/1/1 54/2/1 9/3/1 8/4/1

g mesh_0003
f 29/1/1 55/2/1 56/3/1 30/4/1
f 57/1/1 36/2/1 58/3/1 55/4/1

g mesh_0004
f 31/1/1 59/2/1 15/3/1 2/4/1
f 59/1/1 60/2/1 17/3/1 15/4/1
f 60/1/1 61/2/1 19/3/1 17/4/1
f 61/1/1 62/2/1 21/3/1 19/4/1
f 62/1/1 63/2/1 23/3/1 21/4/1
f 63/1/1 64/2/1 25/3/1 23/4/1
f 64/1/1 65/2/1 27/3/1 25/4/1
f 65/1/1 66/2/1 29/3/1 27/4/1
f 32/1/1 67/2/1 31/3/1 6/4/1
f 67/1/1 68/2/1 59/3/1 31/4/1
f 68/1/1 69/2/1 60/3/1 59/4/1
f 69/1/1 70/2/1 61/3/1 60/4/1
f 70/1/1 71/2/1 62/3/1 61/4/1
f 71/1/1 72/2/1 63/3/1 62/4/1
f 72/1/1 73/2/1 64/3/1 63/4/1
f 73/1/1 74/2/1 65/3/1 64/4/1
f 74/1/1 75/2/1 66/3/1 65/4/1
f 75/1/1 76/2/1 57/3/1 66/4/1
f 54/1/1 77/2/1 32/3/1 9/4/1
f 77/1/1 78/2/1 67/3/1 32/4/1
f 78/1/1 79/2/1 68/3/1 67/4/1
f 79/1/1 80/2/1 69/3/1 68/4/1
f 80/1/1 81/2/1 70/3/1 69/4/1
f 81/1/1 82/2/1 71/3/1 70/4/1
f 82/1/1 83/2/1 72/3/1 71/4/1
f 83/1/1 84/2/1 73/3/1 72/4/1
f 84/1/1 85/2/1 74/3/1 73/4/1
f 85/1/1 86/2/1 75/3/1 74/4/1
f 86/1/1 87/2/1 76/3/1 75/4/1
f 87/1/1 88/2/1 33/3/1 76/4/1
f 88/1/1 89/2/1 34/3/1 33/4/1
f 89/1/1 90/2/1 37/3/1 34/4/1
f 91/1/1 92/2/1 39/3/1 12/4/1
f 92/1/1 93/2/1 41/3/1 39/4/1
f 93/1/1 94/2/1 43/3/1 41/4/1
f 94/1/1 95/2/1 45/3/1 43/4/1
f 95/1/1 96/2/1 47/3/1 45/4/1
f 96/1/1 97/2/1 49/3/1 47/4/1
f 97/1/1 98/2/1 51/3/1 49/4/1
f 98/1/1 99/2/1 53/3/1 51/4/1
f 99/1/1 100/2/1 54/3/1 53/4/1
f 100/1/1 101/2/1 77/3/1 54/4/1
f 101/1/1 102/2/1 78/3/1 77/4/1
f 102/1/1 103/2/1 79/3/1 78/4/1
f 103/1/1 104/2/1 80/3/1 79/4/1
f 104/1/1 105/2/1 81/3/1 80/4/1
f 105/1/1 106/2/1 82/3/1 81/4/1
f 106/1/1 107/2/1 83/3/1 82/4/1
f 107/1/1 108/2/1 84/3/1 83/4/1
f 108/1/1 109/2/1 85/3/1 84/4/1
f 109/1/1 110/2/1 86/3/1 85/4/1
f 110/1/1 111/2/1 87/3/1 86/4/1
f 111/1/1 112/2/1 88/3/1 87/4/1
f 112/1/1 113/2/1 89/3/1 88/4/1
f 113/1/1 114/2/1 90/3/1 89/4/1

g mesh_0005
f 66/1/1 57/2/1 55/3/1 29/4/1
f 76/1/1 33/2/1 36/3/1 57/4/1

g mesh_0006
f 37/1/1 115/2/1 116/3/1 38/4/1

